<svg width="17" height="20" viewBox="0 0 17 20" fill="none" xmlns="http://www.w3.org/2000/svg">
<g clip-path="url(#clip0_274_3729)">
<path d="M8.43562 1.33111C9.09884 1.33111 9.74161 1.46073 10.3458 1.71631C10.9301 1.96339 11.4552 2.31764 11.9063 2.76872C12.3576 3.21997 12.7117 3.74509 12.9587 4.32928C13.2143 4.93361 13.3439 5.57621 13.3439 6.23943C13.3439 6.90266 13.2143 7.54542 12.9587 8.14958C12.7117 8.73394 12.3574 9.25907 11.9063 9.71015C11.4551 10.1614 10.93 10.5155 10.3458 10.7626C9.74144 11.0181 9.09884 11.1478 8.43562 11.1478C7.77239 11.1478 7.12963 11.0181 6.52547 10.7626C5.94111 10.5155 5.41598 10.1612 4.9649 9.71015C4.51365 9.2589 4.15958 8.73378 3.91249 8.14958C3.65691 7.54526 3.5273 6.90266 3.5273 6.23943C3.5273 5.57621 3.65691 4.93344 3.91249 4.32928C4.15958 3.74493 4.51382 3.2198 4.9649 2.76872C5.41615 2.31747 5.94111 1.96339 6.52547 1.71631C7.12979 1.46073 7.77239 1.33111 8.43562 1.33111ZM8.43562 0C4.98953 0 2.19601 2.79351 2.19601 6.2396C2.19601 9.68569 4.98953 12.4792 8.43562 12.4792C11.8817 12.4792 14.6752 9.68569 14.6752 6.2396C14.6752 2.79351 11.8817 0 8.43562 0Z" fill="#F7A100"/>
<path d="M14.6752 20.0001C14.3076 20.0001 14.0096 19.7021 14.0096 19.3346C14.0096 16.2367 14.0096 13.5613 11.4101 11.4484C11.1249 11.2166 11.0817 10.7973 11.3135 10.5121C11.5452 10.2269 11.9645 10.1836 12.2497 10.4154C12.9943 11.0208 13.5802 11.6767 14.0408 12.4211C14.4552 13.091 14.7576 13.8168 14.9649 14.6401C15.3408 16.1322 15.3408 17.6878 15.3408 19.3346C15.3408 19.7021 15.0428 20.0001 14.6752 20.0001Z" fill="#F7A100"/>
<path d="M3.00517 9.19426H1.96657C1.45409 9.19426 0.970726 8.99625 0.605502 8.63685C0.240111 8.27728 0.0346197 7.79708 0.0264666 7.2846L0.000343452 5.63169C-0.00797602 5.10773 0.190027 4.61339 0.557581 4.23985C0.925302 3.8663 1.41632 3.66064 1.94044 3.66064H2.93861V4.99176H1.94044C1.77588 4.99176 1.62164 5.05632 1.50633 5.17362C1.39086 5.29093 1.3288 5.44617 1.33129 5.61056L1.35741 7.26347C1.36257 7.59409 1.63595 7.86297 1.96657 7.86297H3.00517V9.19409V9.19426Z" fill="#F7A100"/>
<path d="M14.9987 9.19409H13.9601V7.86297H14.9987C15.3293 7.86297 15.6025 7.59392 15.6078 7.26347L15.6339 5.61056C15.6366 5.446 15.5744 5.29076 15.4591 5.17362C15.3436 5.05632 15.1893 4.99176 15.0249 4.99176H14.0268V3.66064H15.0249C15.5491 3.66064 16.0401 3.8663 16.4078 4.23985C16.7755 4.61339 16.9734 5.10757 16.965 5.63169L16.9389 7.28461C16.9308 7.79708 16.7251 8.27728 16.3599 8.63668C15.9947 8.99609 15.5113 9.19409 14.9988 9.19409H14.9987Z" fill="#F7A100"/>
<path d="M2.87239 17.8739C2.87139 17.9144 2.87056 17.9548 2.86989 17.9954C2.86157 18.4324 2.86157 18.8788 2.86157 19.3345C2.86157 19.7021 2.56357 20.0001 2.19601 20.0001C1.82846 20.0001 1.53046 19.7021 1.53046 19.3345C1.53046 18.8799 1.53046 18.4324 1.53844 17.9911C1.53944 17.9343 1.54044 17.8778 1.54177 17.8214C1.58969 17.4984 1.86806 17.2505 2.20433 17.2505C2.55874 17.2505 2.84876 17.5257 2.87239 17.8739Z" fill="#F7A100"/>
<path d="M2.34576 16.5889C2.71334 16.5889 3.01132 16.2909 3.01132 15.9234C3.01132 15.5558 2.71334 15.2578 2.34576 15.2578C1.97819 15.2578 1.68021 15.5558 1.68021 15.9234C1.68021 16.2909 1.97819 16.5889 2.34576 16.5889Z" fill="#F7A100"/>
<path d="M6.77173 4.89191C7.13931 4.89191 7.43729 4.59393 7.43729 4.22635C7.43729 3.85877 7.13931 3.56079 6.77173 3.56079C6.40415 3.56079 6.10617 3.85877 6.10617 4.22635C6.10617 4.59393 6.40415 4.89191 6.77173 4.89191Z" fill="#F7A100"/>
<path d="M12.5953 6.23137C12.5953 7.86248 10.733 9.18478 8.43561 9.18478C6.13827 9.18478 4.27588 7.86248 4.27588 6.23137C4.27588 5.85017 4.37754 5.48594 4.56273 5.1515C4.58736 5.10691 4.61348 5.06298 4.6411 5.01939C4.76323 4.85849 4.95674 4.75466 5.17438 4.75466C5.54427 4.75466 5.8441 5.0545 5.8441 5.42438C5.8441 5.52388 5.82247 5.61822 5.78353 5.70308C5.78353 5.70325 5.78337 5.70325 5.78337 5.70341C5.75724 5.74218 5.73312 5.78262 5.71149 5.82438C5.64793 5.94801 5.60699 6.08461 5.60699 6.23137C5.60699 6.69759 6.01914 7.05999 6.2649 7.23436C6.81914 7.62787 7.61032 7.85366 8.43561 7.85366C9.2609 7.85366 10.0521 7.62787 10.6063 7.23436C10.8521 7.05999 11.2642 6.69759 11.2642 6.23137C11.2642 5.76514 10.8521 5.40275 10.6063 5.22837C10.1256 4.88711 9.46689 4.67197 8.76207 4.62105C8.71831 4.61772 8.67421 4.61523 8.63012 4.6134C8.31015 4.56298 8.0654 4.28594 8.0654 3.95183C8.0654 3.59626 8.34243 3.30558 8.69235 3.28345C8.74693 3.28578 8.80117 3.28894 8.85508 3.29293C10.9554 3.44218 12.5953 4.70075 12.5953 6.23137Z" fill="#F7A100"/>
<path d="M5.46106 11.4484C4.44043 12.2782 3.82046 13.1943 3.44409 14.189C3.43477 14.2134 3.42562 14.2381 3.41663 14.2628C3.31297 14.4986 3.07737 14.6632 2.80332 14.6632C2.43344 14.6632 2.13361 14.3633 2.13361 13.9935C2.13361 13.9319 2.14193 13.8725 2.15757 13.8159C2.17054 13.7797 2.18386 13.7437 2.1975 13.7079C2.36971 13.2524 2.57953 12.8264 2.83044 12.4211C3.29101 11.6768 3.87687 11.0208 4.62146 10.4154C4.90665 10.1836 5.32579 10.2269 5.55773 10.5121C5.78951 10.7973 5.74625 11.2164 5.46106 11.4484Z" fill="#F7A100"/>
</g>
<defs>
<clipPath id="clip0_274_3729">
<rect width="16.9652" height="20" fill="white"/>
</clipPath>
</defs>
</svg>
