<svg width="23" height="20" viewBox="0 0 23 20" fill="none" xmlns="http://www.w3.org/2000/svg">
<g clip-path="url(#clip0_288_3693)">
<path d="M17.5769 11.5409H7.50251C7.07974 11.5409 6.73697 11.1981 6.73697 10.7753C6.73697 10.3525 7.07974 10.0098 7.50251 10.0098H17.5769C18.3001 10.0098 18.9548 9.58164 19.245 8.91925L21.0331 4.83546L6.38788 4.74666C5.96511 4.74417 5.62444 4.3993 5.62693 3.97653C5.62942 3.55529 5.97181 3.21558 6.39228 3.21558C6.39381 3.21558 6.39534 3.21558 6.39706 3.21558L22.1942 3.31127C22.4534 3.31223 22.6924 3.44122 22.8354 3.65787C22.9801 3.87701 23.0036 4.15145 22.8985 4.39222L20.6475 9.53341C20.1135 10.7529 18.9081 11.541 17.5769 11.541V11.5409ZM22.185 4.84235C22.185 4.84235 22.1868 4.84235 22.1875 4.84235H22.185Z" fill="#F7A100"/>
<path d="M7.82787 20C6.61429 20 5.62693 19.0127 5.62693 17.7991C5.62693 16.5855 6.61429 15.5981 7.82787 15.5981C9.04144 15.5981 10.0288 16.5855 10.0288 17.7991C10.0288 19.0127 9.04144 20 7.82787 20ZM7.82787 17.1292C7.45849 17.1292 7.15802 17.4297 7.15802 17.7991C7.15802 18.1685 7.45849 18.4689 7.82787 18.4689C8.19724 18.4689 8.49772 18.1685 8.49772 17.7991C8.49772 17.4297 8.19724 17.1292 7.82787 17.1292Z" fill="#F7A100"/>
<path d="M19.7703 20C18.5568 20 17.5694 19.0127 17.5694 17.7991C17.5694 16.5855 18.5568 15.5981 19.7703 15.5981C20.9839 15.5981 21.9713 16.5855 21.9713 17.7991C21.9713 19.0127 20.9839 20 19.7703 20ZM19.7703 17.1292C19.401 17.1292 19.1005 17.4297 19.1005 17.7991C19.1005 18.1685 19.401 18.4689 19.7703 18.4689C20.1397 18.4689 20.4402 18.1685 20.4402 17.7991C20.4402 17.4297 20.1397 17.1292 19.7703 17.1292Z" fill="#F7A100"/>
<path d="M4.24896 6.1053C4.67175 6.1053 5.0145 5.76256 5.0145 5.33976C5.0145 4.91696 4.67175 4.57422 4.24896 4.57422C3.82616 4.57422 3.48341 4.91696 3.48341 5.33976C3.48341 5.76256 3.82616 6.1053 4.24896 6.1053Z" fill="#F7A100"/>
<path d="M15.4833 8.19149C15.9061 8.19149 16.2488 7.84874 16.2488 7.42594C16.2488 7.00315 15.9061 6.6604 15.4833 6.6604C15.0605 6.6604 14.7178 7.00315 14.7178 7.42594C14.7178 7.84874 15.0605 8.19149 15.4833 8.19149Z" fill="#F7A100"/>
<path d="M19.1005 7.42594C19.1005 7.84871 18.7577 8.19149 18.3349 8.19149H17.7799C17.3572 8.19149 17.0144 7.84871 17.0144 7.42594C17.0144 7.00317 17.3572 6.6604 17.7799 6.6604H18.3349C18.7577 6.6604 19.1005 7.00317 19.1005 7.42594Z" fill="#F7A100"/>
<path d="M13.9522 7.42594C13.9522 7.84871 13.6094 8.19149 13.1867 8.19149H6.90922C6.48645 8.19149 6.14368 7.84871 6.14368 7.42594C6.14368 7.00317 6.48645 6.6604 6.90922 6.6604H13.1867C13.6094 6.6604 13.9522 7.00317 13.9522 7.42594Z" fill="#F7A100"/>
<path d="M4.66522 3.06233C4.66522 3.48778 4.32034 3.83265 3.89489 3.83265C3.5437 3.83265 3.24743 3.59763 3.1548 3.27629L3.12514 3.0918L3.12322 3.07993C3.08342 2.83228 2.92399 2.62099 2.69682 2.51458L0.441336 1.45909C0.0583733 1.27995 -0.106793 0.824261 0.0723445 0.441298C0.251481 0.0583351 0.707171 -0.106831 1.09013 0.0723063L3.34581 1.1278C4.03288 1.44933 4.51479 2.08836 4.63498 2.83726L4.63919 2.86328L4.66388 3.01754C4.66484 3.03228 4.66522 3.04721 4.66522 3.06233Z" fill="#F7A100"/>
<path d="M22.7778 12.3309C22.2853 12.8957 21.7079 13.4846 20.8264 13.9661C19.7355 14.5621 18.4448 14.8516 16.8804 14.8516H9.42384C8.19457 14.8516 7.00223 14.4124 6.06674 13.6151C5.13105 12.8176 4.50848 11.71 4.31365 10.4963L3.8859 7.83141L3.85623 7.64634C3.85585 7.63677 3.85566 7.62701 3.85566 7.61725C3.85566 7.1918 4.20054 6.84692 4.62599 6.84692C4.98273 6.84692 5.28282 7.08941 5.37029 7.41859L5.39498 7.57208L5.8254 10.2536C6.11057 12.0306 7.62404 13.3205 9.42384 13.3205H16.8804C19.8829 13.3205 20.9728 12.071 21.6241 11.3246C21.902 11.0059 22.3856 10.9728 22.7041 11.2509C23.0227 11.5288 23.0559 12.0124 22.7778 12.3309Z" fill="#F7A100"/>
</g>
<defs>
<clipPath id="clip0_288_3693">
<rect width="22.9665" height="20" fill="white"/>
</clipPath>
</defs>
</svg>
