<svg width="18" height="20" viewBox="0 0 18 20" fill="none" xmlns="http://www.w3.org/2000/svg">
<g clip-path="url(#clip0_288_3726)">
<path d="M10.6665 19.3204C10.6737 19.694 10.3607 20 9.98683 20H0.698833C0.312833 20 0 19.6872 0 19.3012V16.7167C0 16.3485 0.2985 16.05 0.666667 16.05C1.03483 16.05 1.33333 16.3485 1.33333 16.7167V18.2867C1.33333 18.4965 1.5035 18.6667 1.71333 18.6667H10C10.3638 18.6667 10.6597 18.9582 10.6665 19.3204Z" fill="#F7EFFB"/>
<path d="M0.666667 13.4C0.2985 13.4 0 13.1015 0 12.7333V0.698833C0 0.312833 0.312833 0 0.698833 0H9.98683C10.3607 0 10.6737 0.306 10.6665 0.679667C10.6597 1.04183 10.3638 1.33333 10 1.33333H1.71333C1.5035 1.33333 1.33333 1.5035 1.33333 1.71333V12.7333C1.33333 13.1015 1.03483 13.4 0.666667 13.4Z" fill="#F7EFFB"/>
<path d="M16.6667 10.6666H3.33332C2.96516 10.6666 2.66666 10.3681 2.66666 9.99992C2.66666 9.63175 2.96516 9.33325 3.33332 9.33325H16.6667C17.0348 9.33325 17.3333 9.63175 17.3333 9.99992C17.3333 10.3681 17.0348 10.6666 16.6667 10.6666Z" fill="#F7EFFB"/>
<path d="M11.943 15.3902C11.7723 15.3902 11.6018 15.325 11.4716 15.1949C11.2113 14.9345 11.2113 14.5124 11.4716 14.252L16.1856 9.53802C16.446 9.27769 16.8681 9.27769 17.1285 9.53802C17.3888 9.79836 17.3888 10.2205 17.1285 10.4809L12.4145 15.1949C12.2843 15.325 12.1136 15.3902 11.9431 15.3902H11.943Z" fill="#F7EFFB"/>
<path d="M12.6852 6.01829C12.4248 6.27863 12.0027 6.27863 11.7423 6.01829L11.4715 5.74746C11.2112 5.48713 11.2112 5.06512 11.4715 4.80462C11.732 4.54429 12.154 4.54429 12.4143 4.80462L12.6852 5.07546C12.9455 5.33579 12.9455 5.75796 12.6852 6.01829Z" fill="#F7EFFB"/>
<path d="M17.3235 9.9974V9.9999C17.3211 10.1674 17.2561 10.3341 17.1285 10.4617C16.9983 10.5919 16.8276 10.6569 16.657 10.6569C16.4863 10.6569 16.3158 10.5919 16.1856 10.4617L15.7238 9.9999L14.5815 8.85757C14.3211 8.59723 14.3211 8.17507 14.5815 7.91473C14.8418 7.6544 15.264 7.6544 15.5243 7.91473L17.1283 9.5189C17.131 9.52157 17.1336 9.52423 17.1361 9.5269C17.1375 9.52823 17.139 9.52973 17.1403 9.53123C17.2641 9.66157 17.3253 9.82973 17.3233 9.9974H17.3235Z" fill="#F7EFFB"/>
<path d="M13.6333 7.63338C14.0015 7.63338 14.3 7.33491 14.3 6.96672C14.3 6.59853 14.0015 6.30005 13.6333 6.30005C13.2651 6.30005 12.9666 6.59853 12.9666 6.96672C12.9666 7.33491 13.2651 7.63338 13.6333 7.63338Z" fill="#F7EFFB"/>
<path d="M0.666667 15.3834C1.03486 15.3834 1.33333 15.0849 1.33333 14.7167C1.33333 14.3485 1.03486 14.05 0.666667 14.05C0.298477 14.05 0 14.3485 0 14.7167C0 15.0849 0.298477 15.3834 0.666667 15.3834Z" fill="#F7EFFB"/>
</g>
<defs>
<clipPath id="clip0_288_3726">
<rect width="17.3333" height="20" fill="white"/>
</clipPath>
</defs>
</svg>
