<svg width="25" height="20" viewBox="0 0 25 20" fill="none" xmlns="http://www.w3.org/2000/svg">
<g clip-path="url(#clip0_344_2765)">
<path d="M20.8303 2.28787C19.2767 1.56099 17.6156 1.03273 15.8789 0.731934C15.6656 1.11754 15.4164 1.6362 15.2446 2.04879C13.3985 1.77115 11.5693 1.77115 9.75716 2.04879C9.58539 1.6362 9.33055 1.11754 9.11536 0.731934C7.37681 1.03273 5.71376 1.56293 4.16019 2.29171C1.02664 7.02692 0.177189 11.6445 0.601917 16.1965C2.68025 17.7486 4.69441 18.6914 6.67457 19.3084C7.16349 18.6355 7.59953 17.9202 7.97518 17.1663C7.25975 16.8945 6.57453 16.559 5.92707 16.1696C6.09884 16.0423 6.26686 15.9093 6.42918 15.7724C10.3782 17.6194 14.6689 17.6194 18.5707 15.7724C18.735 15.9093 18.903 16.0423 19.0728 16.1696C18.4235 16.5609 17.7364 16.8964 17.021 17.1683C17.3966 17.9202 17.8308 18.6374 18.3216 19.3103C20.3036 18.6933 22.3197 17.7505 24.398 16.1965C24.8964 10.9196 23.5467 6.34439 20.8303 2.28787ZM8.51318 13.3971C7.32772 13.3971 6.35555 12.2904 6.35555 10.9427C6.35555 9.59503 7.30696 8.48642 8.51318 8.48642C9.71942 8.48642 10.6916 9.59308 10.6708 10.9427C10.6727 12.2904 9.71942 13.3971 8.51318 13.3971ZM16.4867 13.3971C15.3013 13.3971 14.3291 12.2904 14.3291 10.9427C14.3291 9.59503 15.2805 8.48642 16.4867 8.48642C17.693 8.48642 18.6651 9.59308 18.6444 10.9427C18.6444 12.2904 17.693 13.3971 16.4867 13.3971Z" fill="#F7EFFB"/>
</g>
<defs>
<clipPath id="clip0_344_2765">
<rect width="24" height="18.6" fill="white" transform="translate(0.5 0.699951)"/>
</clipPath>
</defs>
</svg>
