<svg width="22" height="24" viewBox="0 0 22 24" fill="none" xmlns="http://www.w3.org/2000/svg">
<g clip-path="url(#clip0_330_2749)">
<path d="M6.67994 1.43994C3.23953 1.43994 0.439941 4.23953 0.439941 7.67994V16.3199C0.439941 19.7603 3.23953 22.5599 6.67994 22.5599H15.3199C18.7603 22.5599 21.5599 19.7603 21.5599 16.3199V7.67994C21.5599 4.23953 18.7603 1.43994 15.3199 1.43994H6.67994ZM6.67994 2.39994H15.3199C18.2415 2.39994 20.5999 4.75843 20.5999 7.67994V16.3199C20.5999 19.2415 18.2415 21.5999 15.3199 21.5999H6.67994C3.75843 21.5999 1.39994 19.2415 1.39994 16.3199V7.67994C1.39994 4.75843 3.75843 2.39994 6.67994 2.39994ZM16.7599 5.27994C16.5053 5.27994 16.2612 5.38108 16.0811 5.56112C15.9011 5.74115 15.7999 5.98533 15.7999 6.23994C15.7999 6.49455 15.9011 6.73873 16.0811 6.91876C16.2612 7.0988 16.5053 7.19994 16.7599 7.19994C17.0145 7.19994 17.2587 7.0988 17.4388 6.91876C17.6188 6.73873 17.7199 6.49455 17.7199 6.23994C17.7199 5.98533 17.6188 5.74115 17.4388 5.56112C17.2587 5.38108 17.0145 5.27994 16.7599 5.27994ZM10.9999 6.71994C8.08956 6.71994 5.71994 9.08956 5.71994 11.9999C5.71994 14.9103 8.08956 17.2799 10.9999 17.2799C13.9103 17.2799 16.2799 14.9103 16.2799 11.9999C16.2799 9.08956 13.9103 6.71994 10.9999 6.71994ZM10.9999 7.67994C13.3915 7.67994 15.3199 9.60839 15.3199 11.9999C15.3199 14.3915 13.3915 16.3199 10.9999 16.3199C8.60839 16.3199 6.67994 14.3915 6.67994 11.9999C6.67994 9.60839 8.60839 7.67994 10.9999 7.67994Z" fill="#F7EFFB"/>
</g>
<defs>
<clipPath id="clip0_330_2749">
<rect width="21" height="24" fill="white" transform="translate(0.5)"/>
</clipPath>
</defs>
</svg>
