<svg width="18" height="24" viewBox="0 0 18 24" fill="none" xmlns="http://www.w3.org/2000/svg">
<g clip-path="url(#clip0_330_2755)">
<path d="M14.359 5.70365C13.9605 5.15665 13.677 4.52016 13.5555 3.82566C13.5335 3.70166 13.517 3.57816 13.5055 3.45266V3.03516H12.604C12.8495 4.12616 13.4845 5.06615 14.359 5.70365Z" fill="#F7EFFB"/>
<path d="M6.5 12.5002C5.1195 12.5002 4 13.6197 4 15.0002C4 15.9487 4.5345 16.7637 5.3125 17.1877C5.1195 16.8327 5 16.4322 5 16.0002C5 14.6197 6.1195 13.5002 7.5 13.5002C7.6715 13.5002 7.8385 13.5177 8 13.5507V10.0257C7.8345 10.0117 7.669 10.0002 7.5 10.0002C7.331 10.0002 7.1655 10.0117 7 10.0252V12.5502C6.8385 12.5177 6.6715 12.5002 6.5 12.5002Z" fill="#F7EFFB"/>
<path d="M17.031 7.45703V9.82353C15.3435 9.82353 13.7805 9.28803 12.505 8.37653L12.5065 15L12.4995 14.991C12.4995 14.994 12.5 14.997 12.5 15C12.5 18.3135 9.81352 21 6.50003 21C5.09803 21 3.81153 20.5155 2.79053 19.7095C3.88903 21.1025 5.58803 22 7.50002 22C10.8135 22 13.5 19.3135 13.5 16C13.5 15.997 13.4995 15.994 13.4995 15.991L13.5065 16L13.5055 9.37603C14.781 10.2875 16.344 10.823 18.0315 10.823V8.26903V8.26803V7.57753C17.6925 7.57853 17.3585 7.53053 17.031 7.45703Z" fill="#F7EFFB"/>
<path d="M12.5 15.0002C12.5 14.9972 12.4995 14.9942 12.4995 14.9912L12.5065 15.0002L12.5055 8.37616C13.781 9.28766 15.344 9.82316 17.0315 9.82316V7.45667C16.538 7.34517 16.062 7.16166 15.6285 6.89117C15.1315 6.58117 14.703 6.17517 14.3595 5.70317C13.4845 5.06567 12.85 4.12567 12.6045 3.03467H10V15.0002V15.5002V16.0002C10 17.3807 8.8805 18.5002 7.5 18.5002C6.5515 18.5002 5.7365 17.9657 5.3125 17.1877C4.5345 16.7637 4 15.9487 4 15.0002C4 13.6197 5.1195 12.5002 6.5 12.5002C6.6715 12.5002 6.8385 12.5177 7 12.5507V10.0257C3.921 10.2802 1.5 12.8552 1.5 16.0002C1.5 17.4022 1.9845 18.6887 2.7905 19.7097C3.8115 20.5157 5.098 21.0002 6.5 21.0002C9.81349 21.0002 12.5 18.3137 12.5 15.0002Z" fill="#F7EFFB"/>
</g>
<defs>
<clipPath id="clip0_330_2755">
<rect width="17" height="24" fill="white" transform="translate(0.5)"/>
</clipPath>
</defs>
</svg>
