<svg width="22" height="24" viewBox="0 0 22 24" fill="none" xmlns="http://www.w3.org/2000/svg">
<g clip-path="url(#clip0_344_2751)">
<path d="M21.0512 6.95982C20.8599 5.9042 19.9487 5.13545 18.8912 4.89545C17.3087 4.55982 14.3799 4.31982 11.2112 4.31982C8.04431 4.31982 5.06869 4.55982 3.48432 4.89545C2.42869 5.13545 1.51557 5.85545 1.32432 6.95982C1.13119 8.15982 0.939941 9.83982 0.939941 11.9998C0.939941 14.1598 1.13119 15.8398 1.37119 17.0398C1.56432 18.0954 2.47557 18.8642 3.53119 19.1042C5.21119 19.4398 8.09119 19.6798 11.2599 19.6798C14.4287 19.6798 17.3087 19.4398 18.9887 19.1042C20.0443 18.8642 20.9556 18.1442 21.1487 17.0398C21.3399 15.8398 21.5799 14.1111 21.6287 11.9998C21.5312 9.83982 21.2912 8.15982 21.0512 6.95982ZM8.61994 15.3598V8.63982L14.4756 11.9998L8.61994 15.3598Z" fill="#F7EFFB"/>
</g>
<defs>
<clipPath id="clip0_344_2751">
<rect width="21" height="24" fill="white" transform="translate(0.5)"/>
</clipPath>
</defs>
</svg>
