<?xml version="1.0" encoding="UTF-8"?>
<svg id="Calque_1" xmlns="http://www.w3.org/2000/svg" version="1.1" viewBox="0 0 1200 1200">
  <!-- Generator: Adobe Illustrator 29.0.1, SVG Export Plug-In . SVG Version: 2.1.0 Build 192)  -->
  <defs>
    <style>
      .st0 {
        fill: #f7effb;
      }
    </style>
  </defs>
  <path class="st0" d="M894.16,1072.86c-7.64-11.54-20.34-17.93-33.37-17.93-6.29,0-12.65,1.48-18.55,4.6-13.13,6.93-26.59,13.32-40.36,19.14-64.05,27.09-132.15,40.83-202.38,40.83-11.3,0-22.55-.36-33.73-1.07-20.22-1.29-38.16,12.89-41.76,32.83h0c-4.23,23.47,12.88,45.5,36.69,47.01,11.25.71,22.59,1.12,34.01,1.21,102.97.8,199.99-24.33,284.93-69.26,20.84-11.03,27.53-37.7,14.52-57.36ZM1199.48,594.34C1196.71,264.36,929.49-.5,599.5-.5S-.5,268.13-.5,599.5c0,228.49,127.04,426.9,314.71,528.24,20.84,11.26,46.85,2.17,56-19.68l.08-.2c7.93-18.92.3-40.84-17.76-50.58-44.26-23.89-84.73-54.06-120.75-90.08-47.78-47.79-85.28-103.41-111.47-165.32-27.09-64.05-40.83-132.15-40.83-202.38s13.74-138.33,40.83-202.38c26.19-61.91,63.69-117.53,111.47-165.32,47.79-47.78,103.41-85.28,165.32-111.47,64.05-27.09,132.15-40.83,202.38-40.83s138.33,13.74,202.38,40.83c61.91,26.19,117.53,63.69,165.32,111.47,47.78,47.79,85.28,103.41,111.47,165.32,27.09,64.05,40.83,132.15,40.83,202.38s-13.74,138.33-40.83,202.38c-23.69,55.99-56.62,106.83-98.05,151.39-4.38,4.72-8.85,9.36-13.42,13.93-16.61,16.61-34.18,31.98-52.61,46.06l6.86,23.96c2.35,8.23,7.12,15.11,13.31,20.1.01,0,.02.02.03.03,5.89,5.39,13.44,9.08,21.96,10.16l15.71,2c27.06-21.5,52.22-45.28,75.19-71.06,95.51-107.2,153.13-248.92,151.83-404.11Z"/>
  <g>
    <path class="st0" d="M970.92,1064.67c-3.68,1.05-7.39,1.55-11.03,1.55-9.24,0-18.08-3.22-25.1-8.87,0-.01-.02-.02-.03-.03-6.19-4.99-10.96-11.87-13.31-20.1l-6.86-23.96-48.37-168.88c-6.08-21.24,6.2-43.39,27.44-49.47,21.24-6.09,43.38,6.2,49.47,27.44l37.49,130.92,10.9,38.03,6.84,23.9c6.08,21.23-6.2,43.38-27.44,49.47Z"/>
    <path class="st0" d="M1200.47,1058.22c-2.57,20.2-19.79,34.95-39.63,34.95-1.68,0-3.38-.11-5.1-.32l-183.28-23.34-15.71-2c-8.52-1.08-16.07-4.77-21.96-10.16,0-.01-.02-.02-.03-.03-9.23-8.48-14.34-21.16-12.64-34.54,2.79-21.91,22.82-37.42,44.73-34.62l24.67,3.14,56.13,7.15,118.19,15.04c21.92,2.79,37.42,22.81,34.63,44.73Z"/>
  </g>
  <g>
    <path class="st0" d="M158.21,738.61c0-11.7,4.17-21.53,12.54-29.48,7.94-8.36,17.77-12.54,29.48-12.54h253.38c7.94-.41,14.52-2.29,19.76-5.64,5.22-3.34,9.09-7.1,11.6-11.29,2.51-4.17,3.76-8.56,3.76-13.17s-1.25-8.99-3.76-13.17c-2.51-4.17-6.38-7.94-11.6-11.29-5.23-3.34-11.82-5.22-19.76-5.64h-252.13c-11.71,0-21.54-4.17-29.48-12.54-8.37-7.94-12.54-17.77-12.54-29.48s4.08-21.64,12.23-29.79c8.15-8.15,18.08-12.23,29.79-12.23h249.62c7.94-.41,14.52-2.2,19.76-5.33,5.22-3.14,9.09-6.79,11.6-10.98,2.51-4.17,3.76-8.57,3.76-13.17,0-4.17-1.25-8.36-3.76-12.54-2.51-4.17-6.38-7.84-11.6-10.98-5.23-3.14-11.82-4.91-19.76-5.33h-252.13c-11.71,0-21.54-4.17-29.48-12.54-8.37-7.53-12.54-17.14-12.54-28.85s4.08-20.9,12.23-28.85c8.15-7.94,18.08-11.92,29.79-11.92h248.37c29.26.42,53.41,6.8,72.44,19.13,19.02,12.34,32.61,26.66,40.77,42.96,8.15,16.31,12.23,32.61,12.23,48.92s-4.18,32.41-12.54,48.29c-3.76,7.53-8.58,14.42-14.43,20.7,7.11,7.53,12.96,15.47,17.56,23.83,7.94,16.73,11.92,33.66,11.92,50.8s-4.18,32.72-12.54,49.23c-8.37,16.52-21.95,31.15-40.77,43.9-18.81,12.76-42.86,19.55-72.12,20.38h-3.76c-2.51.42-5.02.63-7.53.63h-238.33c-11.71,0-21.64-4.08-29.79-12.23-8.15-8.15-12.23-18.08-12.23-29.79Z"/>
    <path class="st0" d="M933.91,411.84c21.32.42,40.35,7.11,57.07,20.07,16.72,12.96,30.2,28.44,40.45,46.41,10.24,17.98,17.88,37,22.89,57.07,5.02,20.07,7.53,40.56,7.53,61.46,0,27.6-4.29,54.67-12.86,81.22-8.58,26.56-22.58,50.08-42.02,70.56-19.44,20.49-43.8,31.58-73.07,33.24h-198.82c-29.27-1.25-53.73-12.12-73.38-32.61-19.66-20.48-33.55-44.11-41.71-70.87-8.15-26.75-12.23-53.94-12.23-81.53s4.17-54.66,12.54-81.22c8.36-26.55,22.26-50.17,41.71-70.87,19.44-20.7,43.8-31.67,73.07-32.93h198.82ZM912.59,697.84c15.88-.83,29.16-6.79,39.83-17.88,10.66-11.07,18.29-23.93,22.89-38.57,4.6-14.63,6.9-29.48,6.9-44.53s-2.41-29.79-7.21-44.22c-4.81-14.42-12.45-27.28-22.89-38.57-10.46-11.29-23.63-17.35-39.51-18.19h-158.05c-15.89.84-29.07,6.9-39.51,18.19-10.46,11.29-18.09,24.15-22.89,38.57-4.81,14.42-7.21,29.16-7.21,44.22s2.29,29.9,6.9,44.53c4.6,14.64,12.23,27.5,22.89,38.57,10.66,11.08,23.93,17.04,39.83,17.88h158.05Z"/>
  </g>
  <circle class="st0" cx="600" cy="1039.5" r="40"/>
  <circle class="st0" cx="445" cy="1138" r="40"/>
  <circle class="st0" cx="307" cy="928" r="40"/>
  <circle class="st0" cx="600" cy="159.45" r="40"/>
  <circle class="st0" cx="307" cy="270.95" r="40"/>
  <circle class="st0" cx="892.5" cy="271" r="40"/>
</svg>