<?xml version="1.0" encoding="UTF-8"?>
<svg id="Calque_1" xmlns="http://www.w3.org/2000/svg" version="1.1" viewBox="0 0 1019.61 1202">
  <!-- Generator: Adobe Illustrator 29.0.1, SVG Export Plug-In . SVG Version: 2.1.0 Build 192)  -->
  <defs>
    <style>
      .st0 {
        fill: #f7effb;
      }
    </style>
  </defs>
  <path class="st0" d="M506.98,80c39.86,0,78.49,7.79,114.8,23.15,35.12,14.85,66.68,36.14,93.79,63.25,27.12,27.12,48.4,58.68,63.25,93.79,15.36,36.32,23.15,74.94,23.15,114.8s-7.79,78.49-23.15,114.8c-14.85,35.12-36.14,66.68-63.25,93.79-27.12,27.12-58.68,48.4-93.79,63.25-36.32,15.36-74.94,23.15-114.8,23.15s-78.49-7.79-114.8-23.15c-35.12-14.85-66.68-36.14-93.79-63.25-27.12-27.12-48.4-58.68-63.25-93.79-15.36-36.32-23.15-74.94-23.15-114.8s7.79-78.49,23.15-114.8c14.85-35.12,36.14-66.68,63.25-93.79,27.12-27.12,58.67-48.4,93.79-63.25,36.32-15.36,74.94-23.15,114.8-23.15M506.98,0C299.87,0,131.98,167.89,131.98,375s167.89,375,375,375,375-167.89,375-375S714.09,0,506.98,0h0Z"/>
  <path class="st0" d="M881.98,1202c-22.09,0-40-17.91-40-40,0-186.18,0-346.97-156.23-473.96-17.14-13.93-19.74-39.13-5.81-56.27,13.93-17.14,39.13-19.74,56.27-5.81,44.75,36.38,79.96,75.8,107.64,120.54,24.91,40.26,43.08,83.88,55.54,133.36,22.59,89.68,22.59,183.17,22.59,282.14,0,22.09-17.91,40-40,40Z"/>
  <path class="st0" d="M180.61,552.57h-62.42c-30.8,0-59.85-11.9-81.8-33.5C14.43,497.46,2.08,468.6,1.59,437.8L.02,338.46c-.5-31.49,11.4-61.2,33.49-83.65,22.1-22.45,51.61-34.81,83.11-34.81h59.99v80h-59.99c-9.89,0-19.16,3.88-26.09,10.93-6.94,7.05-10.67,16.38-10.52,26.26l1.57,99.34c.31,19.87,16.74,36.03,36.61,36.03h62.42v80Z"/>
  <path class="st0" d="M901.42,552.57h-62.42v-80h62.42c19.87,0,36.29-16.17,36.61-36.03l1.57-99.34c.16-9.89-3.58-19.22-10.51-26.26-6.94-7.05-16.21-10.93-26.09-10.93h-59.99v-80h59.99c31.5,0,61.01,12.36,83.11,34.81,22.1,22.45,33.99,52.15,33.49,83.65l-1.57,99.34c-.49,30.8-12.85,59.66-34.8,81.26s-51,33.5-81.8,33.5Z"/>
  <path class="st0" d="M172.63,1074.22c-.06,2.43-.11,4.86-.15,7.3-.5,26.26-.5,53.09-.5,80.48,0,22.09-17.91,40-40,40s-40-17.91-40-40c0-27.32,0-54.22.48-80.74.06-3.41.12-6.81.2-10.2,2.88-19.41,19.61-34.31,39.82-34.31,21.3,0,38.73,16.54,40.15,37.47Z"/>
  <circle class="st0" cx="140.98" cy="957" r="40"/>
  <circle class="st0" cx="406.98" cy="254" r="40"/>
  <path class="st0" d="M756.98,374.5c0,98.03-111.93,177.5-250,177.5s-250-79.47-250-177.5c0-22.91,6.11-44.8,17.24-64.9,1.48-2.68,3.05-5.32,4.71-7.94,7.34-9.67,18.97-15.91,32.05-15.91,22.23,0,40.25,18.02,40.25,40.25,0,5.98-1.3,11.65-3.64,16.75,0,.01-.01.01-.01.02-1.57,2.33-3.02,4.76-4.32,7.27-3.82,7.43-6.28,15.64-6.28,24.46,0,28.02,24.77,49.8,39.54,60.28,33.31,23.65,80.86,37.22,130.46,37.22s97.15-13.57,130.46-37.22c14.77-10.48,39.54-32.26,39.54-60.28s-24.77-49.8-39.54-60.28c-28.89-20.51-68.48-33.44-110.84-36.5-2.63-.2-5.28-.35-7.93-.46-19.23-3.03-33.94-19.68-33.94-39.76,0-21.37,16.65-38.84,37.68-40.17,3.28.14,6.54.33,9.78.57,126.23,8.97,224.79,84.61,224.79,176.6Z"/>
  <path class="st0" d="M328.21,688.04c-61.34,49.87-98.6,104.93-121.22,164.71-.56,1.47-1.11,2.95-1.65,4.44-6.23,14.17-20.39,24.06-36.86,24.06-22.23,0-40.25-18.02-40.25-40.25,0-3.7.5-7.27,1.44-10.67.78-2.18,1.58-4.34,2.4-6.49,10.35-27.38,22.96-52.98,38.04-77.34,27.68-44.73,62.89-84.16,107.64-120.54,17.14-13.93,42.33-11.33,56.27,5.81,13.93,17.14,11.33,42.33-5.81,56.27Z"/>
</svg>