<?xml version="1.0" encoding="UTF-8"?>
<svg id="Calque_1" xmlns="http://www.w3.org/2000/svg" version="1.1" viewBox="0 0 639.85 1199.84">
  <!-- Generator: Adobe Illustrator 29.0.1, SVG Export Plug-In . SVG Version: 2.1.0 Build 192)  -->
  <defs>
    <style>
      .st0 {
        fill: #f7effb;
      }
    </style>
  </defs>
  <g>
    <g>
      <path class="st0" d="M384.24,255.6h0c15.62,15.62,15.62,40.95,0,56.57L68.28,628.13c-7.81,7.81-18.04,11.71-28.28,11.71s-20.47-3.9-28.29-11.71c-7.57-7.57-11.46-17.41-11.7-27.33-.02-.59-.02-1.17,0-1.76.2-9.97,4.09-19.87,11.7-27.48L327.67,255.6c15.62-15.62,40.95-15.62,56.57,0Z"/>
      <path class="st0" d="M628.14,68.28l-74.04,74.04c-15.62,15.62-40.95,15.62-56.57,0h0c-15.62-15.62-15.62-40.95,0-56.57l74.03-74.03c15.62-15.63,40.94-15.62,56.57,0,15.62,15.62,15.62,40.94,0,56.56Z"/>
    </g>
    <path class="st0" d="M599.85,1199.84c-10.24,0-20.47-3.91-28.28-11.72L11.72,628.28c-15.62-15.62-15.62-40.95,0-56.57s40.95-15.62,56.57,0l559.84,559.84c15.62,15.62,15.62,40.95,0,56.57-7.81,7.81-18.05,11.72-28.28,11.72Z"/>
  </g>
  <circle class="st0" cx="440.92" cy="199" r="40"/>
</svg>