<?xml version="1.0" encoding="UTF-8"?>
<svg id="Calque_1" xmlns="http://www.w3.org/2000/svg" version="1.1" viewBox="0 0 1199 1053">
  <!-- Generator: Adobe Illustrator 29.0.1, SVG Export Plug-In . SVG Version: 2.1.0 Build 192)  -->
  <defs>
    <style>
      .st0 {
        fill: #f7effb;
      }
    </style>
  </defs>
  <path class="st0" d="M300,0c-82.68,0-149.73,68.45-150,153h80.01c.25-40.3,31.55-73,69.99-73s69.74,32.7,69.99,73h80.01C449.73,68.45,382.68,0,300,0Z"/>
  <path class="st0" d="M900,0c-82.68,0-149.73,68.45-150,153h80.01c.25-40.3,31.55-73,69.99-73s69.74,32.7,69.99,73h80.01c-.27-84.55-67.32-153-150-153Z"/>
  <circle class="st0" cx="40" cy="718" r="40"/>
  <circle class="st0" cx="850" cy="413" r="40"/>
  <path class="st0" d="M1169,373v80h-199c-22.09,0-40-17.91-40-40s17.91-40,40-40h199Z"/>
  <path class="st0" d="M770,413c0,22.09-17.91,40-40,40H38v-80h692c22.09,0,40,17.91,40,40Z"/>
  <path class="st0" d="M1199,273.56v658.88c0,66.58-53.98,120.56-120.56,120.56H120.56c-66.58,0-120.56-53.98-120.56-120.56v-94.44c0-22.09,17.91-40,40-40s40,17.91,40,40v94.44c0,22.36,18.2,40.56,40.56,40.56h957.88c22.36,0,40.56-18.2,40.56-40.56V273.56c0-22.36-18.2-40.56-40.56-40.56H120.56c-22.36,0-40.56,18.2-40.56,40.56v324.44c0,22.09-17.91,40-40,40S0,620.09,0,598v-324.44c0-66.58,53.98-120.56,120.56-120.56h957.88c66.58,0,120.56,53.98,120.56,120.56Z"/>
  <g>
    <path class="st0" d="M220,553c22.06,0,40,17.94,40,40s-17.94,40-40,40-40-17.94-40-40,17.94-40,40-40M220,493c-55.23,0-100,44.77-100,100s44.77,100,100,100,100-44.77,100-100-44.77-100-100-100h0Z"/>
    <path class="st0" d="M220,793c22.06,0,40,17.94,40,40s-17.94,40-40,40-40-17.94-40-40,17.94-40,40-40M220,733c-55.23,0-100,44.77-100,100s44.77,100,100,100,100-44.77,100-100-44.77-100-100-100h0Z"/>
  </g>
  <g>
    <path class="st0" d="M473,553c22.06,0,40,17.94,40,40s-17.94,40-40,40-40-17.94-40-40,17.94-40,40-40M473,493c-55.23,0-100,44.77-100,100s44.77,100,100,100,100-44.77,100-100-44.77-100-100-100h0Z"/>
    <path class="st0" d="M473,793c22.06,0,40,17.94,40,40s-17.94,40-40,40-40-17.94-40-40,17.94-40,40-40M473,733c-55.23,0-100,44.77-100,100s44.77,100,100,100,100-44.77,100-100-44.77-100-100-100h0Z"/>
  </g>
  <g>
    <path class="st0" d="M726,553c22.06,0,40,17.94,40,40s-17.94,40-40,40-40-17.94-40-40,17.94-40,40-40M726,493c-55.23,0-100,44.77-100,100s44.77,100,100,100,100-44.77,100-100-44.77-100-100-100h0Z"/>
    <path class="st0" d="M726,793c22.06,0,40,17.94,40,40s-17.94,40-40,40-40-17.94-40-40,17.94-40,40-40M726,733c-55.23,0-100,44.77-100,100s44.77,100,100,100,100-44.77,100-100-44.77-100-100-100h0Z"/>
  </g>
  <g>
    <path class="st0" d="M979,553c22.06,0,40,17.94,40,40s-17.94,40-40,40-40-17.94-40-40,17.94-40,40-40M979,493c-55.23,0-100,44.77-100,100s44.77,100,100,100,100-44.77,100-100-44.77-100-100-100h0Z"/>
    <path class="st0" d="M979,793c22.06,0,40,17.94,40,40s-17.94,40-40,40-40-17.94-40-40,17.94-40,40-40M979,733c-55.23,0-100,44.77-100,100s44.77,100,100,100,100-44.77,100-100-44.77-100-100-100h0Z"/>
  </g>
</svg>