<?xml version="1.0" encoding="UTF-8"?>
<svg id="Calque_1" xmlns="http://www.w3.org/2000/svg" version="1.1" viewBox="0 0 1200.01 1045.01">
  <!-- Generator: Adobe Illustrator 29.0.1, SVG Export Plug-In . SVG Version: 2.1.0 Build 192)  -->
  <defs>
    <style>
      .st0 {
        fill: #f7effb;
      }
    </style>
  </defs>
  <path class="st0" d="M918.4,603.01H392.01c-22.09,0-40-17.91-40-40s17.91-40,40-40h526.39c37.79,0,72-22.37,87.16-56.98l93.43-213.38-765.22-4.64c-22.09-.13-39.89-18.15-39.76-40.24.13-22.01,18.02-39.76,39.99-39.76.08,0,.16,0,.25,0l825.41,5c13.54.05,26.03,6.79,33.5,18.11,7.56,11.45,8.79,25.79,3.3,38.37l-117.62,268.63c-27.9,63.72-90.88,104.9-160.44,104.9ZM1159.18,253.01s.09,0,.13,0h-.13Z"/>
  <path class="st0" d="M409.01,1045.01c-63.41,0-115-51.59-115-115s51.59-115,115-115,115,51.59,115,115-51.59,115-115,115ZM409.01,895.01c-19.3,0-35,15.7-35,35s15.7,35,35,35,35-15.7,35-35-15.7-35-35-35Z"/>
  <path class="st0" d="M1033.01,1045.01c-63.41,0-115-51.59-115-115s51.59-115,115-115,115,51.59,115,115-51.59,115-115,115ZM1033.01,895.01c-19.3,0-35,15.7-35,35s15.7,35,35,35,35-15.7,35-35-15.7-35-35-35Z"/>
  <circle class="st0" cx="222.01" cy="279.01" r="40"/>
  <circle class="st0" cx="809.01" cy="388.01" r="40"/>
  <path class="st0" d="M998.01,388.01c0,22.09-17.91,40-40,40h-29c-22.09,0-40-17.91-40-40s17.91-40,40-40h29c22.09,0,40,17.91,40,40Z"/>
  <path class="st0" d="M729.01,388.01c0,22.09-17.91,40-40,40h-328c-22.09,0-40-17.91-40-40s17.91-40,40-40h328c22.09,0,40,17.91,40,40Z"/>
  <path class="st0" d="M243.76,160.01c0,22.23-18.02,40.25-40.25,40.25-18.35,0-33.83-12.28-38.67-29.07l-1.55-9.64-.1-.62c-2.08-12.94-10.41-23.98-22.28-29.54L23.06,76.24C3.05,66.88-5.58,43.07,3.78,23.06S36.95-5.58,56.96,3.78l117.86,55.15c35.9,16.8,61.08,50.19,67.36,89.32l.22,1.36,1.29,8.06c.05.77.07,1.55.07,2.34Z"/>
  <path class="st0" d="M1190.15,644.3c-25.73,29.51-55.9,60.28-101.96,85.44-57,31.14-124.44,46.27-206.18,46.27h-389.61c-64.23,0-126.53-22.95-175.41-64.61-48.89-41.67-81.42-99.54-91.6-162.96l-22.35-139.24-1.55-9.67c-.02-.5-.03-1.01-.03-1.52,0-22.23,18.02-40.25,40.25-40.25,18.64,0,34.32,12.67,38.89,29.87l1.29,8.02,22.49,140.11c14.9,92.85,93.98,160.25,188.02,160.25h389.61c156.88,0,213.83-65.29,247.86-104.29,14.52-16.65,39.79-18.38,56.43-3.85,16.65,14.52,18.38,39.79,3.85,56.43Z"/>
</svg>