<?xml version="1.0" encoding="UTF-8"?>
<svg id="Calque_1" xmlns="http://www.w3.org/2000/svg" version="1.1" viewBox="0 0 1200 1200">
  <!-- Generator: Adobe Illustrator 29.0.1, SVG Export Plug-In . SVG Version: 2.1.0 Build 192)  -->
  <defs>
    <style>
      .st0 {
        fill: #f7effb;
      }
    </style>
  </defs>
  <path class="st0" d="M359.99,1200.19c-13.82,0-27.27-7.17-34.68-20.01L6.4,627.82c-11.05-19.13-4.49-43.6,14.64-54.64,19.13-11.04,43.6-4.49,54.64,14.64l318.91,552.37c11.05,19.13,4.49,43.6-14.64,54.64-6.3,3.64-13.18,5.37-19.96,5.37Z"/>
  <g>
    <path class="st0" d="M867.42,271.65h0c14.29,16.16,13.12,40.74-2.62,55.5-201.1,188.5-344.8,413.03-466.3,843.71-4.98,17.63-21.02,29.15-38.48,29.15-3.6,0-7.25-.49-10.88-1.51-21.26-6-33.64-28.1-27.64-49.36,44.9-159.14,93.54-293.39,148.69-410.41,52.47-111.32,111.45-208.19,180.32-296.14,47.17-60.25,98.92-116.56,159.76-173.6,16.39-15.37,42.25-14.17,57.14,2.67Z"/>
    <path class="st0" d="M1183.63,72.28c-48.14,35.24-93.79,69.03-137.16,102.45-17.15,13.22-41.71,10.32-55.32-6.52l-.12-.15c-14.07-17.41-11.04-42.97,6.68-56.64,42.71-32.96,88.5-66.98,138.67-103.7,17.83-13.05,42.86-9.17,55.91,8.65,13.05,17.83,9.17,42.86-8.65,55.91Z"/>
  </g>
  <circle class="st0" cx="928" cy="218.5" r="40"/>
</svg>