<?xml version="1.0" encoding="UTF-8"?>
<svg id="Calque_1" xmlns="http://www.w3.org/2000/svg" version="1.1" viewBox="0 0 1200 1200">
  <!-- Generator: Adobe Illustrator 29.0.1, SVG Export Plug-In . SVG Version: 2.1.0 Build 192)  -->
  <defs>
    <style>
      .st0 {
        fill: #f7eefc;
      }
    </style>
  </defs>
  <g>
    <path class="st0" d="M963.6,236.4h0c15.6,15.6,15.6,40.9,0,56.6L68.3,1188.3c-7.8,7.8-18,11.7-28.3,11.7s-20.5-3.9-28.3-11.7c-15.6-15.6-15.6-40.9,0-56.6L907.1,236.4c15.6-15.6,40.9-15.6,56.6,0Z"/>
    <path class="st0" d="M1188.3,68.3l-55.3,55.3c-15.6,15.6-40.9,15.6-56.6,0h0c-15.6-15.6-15.6-40.9,0-56.6l55.3-55.3c15.6-15.6,40.9-15.6,56.6,0,15.6,15.6,15.6,40.9,0,56.6Z"/>
  </g>
  <path class="st0" d="M1160,1200c10.2,0,20.5-3.9,28.3-11.7,15.6-15.6,15.6-40.9,0-56.6L68.3,11.7C52.7-3.9,27.3-3.9,11.7,11.7c-15.6,15.6-15.6,40.9,0,56.6l1120,1120c7.8,7.8,18,11.7,28.3,11.7Z"/>
  <circle class="st0" cx="1020" cy="180" r="40"/>
</svg>