<?xml version="1.0" encoding="UTF-8"?>
<svg id="Calque_1" xmlns="http://www.w3.org/2000/svg" version="1.1" viewBox="0 0 1000 1200">
  <!-- Generator: Adobe Illustrator 29.0.1, SVG Export Plug-In . SVG Version: 2.1.0 Build 192)  -->
  <defs>
    <style>
      .st0 {
        fill: #f7effb;
      }
    </style>
  </defs>
  <path class="st0" d="M960,129.5h-290.97C649,54.91,580.91,0,500,0s-149,54.91-169.03,129.5H40c-22.09,0-40,17.91-40,40v170c0,22.09,17.91,40,40,40h61.33v405.5c0,22.09,17.91,40,40,40h0c22.09,0,40-17.91,40-40v-384.96c0-11.07,8.97-20.04,20.04-20.04h597.26c11.07,0,20.04,8.97,20.04,20.04v699.92c0,11.07-8.97,20.04-20.04,20.04H201.37c-11.07,0-20.04-8.97-20.04-20.04v-73.96c0-22.09-17.91-40-40-40h0c-22.09,0-40,17.91-40,40v134c0,22.09,17.91,40,40,40h717.34c22.09,0,40-17.91,40-40V379.5h61.33c22.09,0,40-17.91,40-40v-170c0-22.09-17.91-40-40-40ZM428.39,112.65c17.43-19.99,43.06-32.65,71.61-32.65s54.18,12.66,71.61,32.65c5.74,6.58,1.15,16.85-7.59,16.85h-128.04c-8.74,0-13.33-10.27-7.59-16.85ZM920,279.46c0,11.07-8.97,20.04-20.04,20.04H100.04c-11.07,0-20.04-8.97-20.04-20.04v-49.92c0-11.07,8.97-20.04,20.04-20.04h799.92c11.07,0,20.04,8.97,20.04,20.04v49.92Z"/>
  <path class="st0" d="M301.5,1040c-22.09,0-40-17.91-40-40v-499.5c0-22.09,17.91-40,40-40s40,17.91,40,40v499.5c0,22.09-17.91,40-40,40Z"/>
  <path class="st0" d="M500,1040c-22.09,0-40-17.91-40-40v-499.5c0-22.09,17.91-40,40-40s40,17.91,40,40v499.5c0,22.09-17.91,40-40,40Z"/>
  <g>
    <path class="st0" d="M738.5,501.29v48.71c0,22.09-17.91,40-40,40h0c-22.09,0-40-17.91-40-40v-49.5c0-21.83,17.49-39.58,39.22-39.99s40.78,18.36,40.78,40.78Z"/>
    <path class="st0" d="M698.5,750h0c22.09,0,40,17.91,40,40v209.21c0,22.43-18.35,41.21-40.78,40.78-21.73-.41-39.22-18.16-39.22-39.99v-210c0-22.09,17.91-40,40-40Z"/>
  </g>
  <circle class="st0" cx="698" cy="670" r="40"/>
  <circle class="st0" cx="141" cy="906" r="40"/>
</svg>