<?xml version="1.0" encoding="UTF-8"?>
<svg id="Calque_1" xmlns="http://www.w3.org/2000/svg" version="1.1" viewBox="0 0 1191.89 1192.35">
  <!-- Generator: Adobe Illustrator 29.0.1, SVG Export Plug-In . SVG Version: 2.1.0 Build 192)  -->
  <defs>
    <style>
      .st0 {
        fill: #f7effb;
      }
    </style>
  </defs>
  <rect class="st0" x="920.88" y="82.97" width="80" height="269.07" transform="translate(127.64 743.15) rotate(-45)"/>
  <path class="st0" d="M.51,1171.43l78.02-315.08c5.96-24.05,35.89-32.38,53.41-14.86l218.91,218.91c17.52,17.52,9.19,47.46-14.86,53.41l-315.08,78.02c-12.32,3.05-23.46-8.09-20.41-20.41ZM130.07,981.05l-20.69,83.56c-2.74,11.08,7.28,21.11,18.37,18.37l83.56-20.69c9.97-2.47,13.42-14.87,6.16-22.13l-65.26-65.26c-7.26-7.26-19.67-3.81-22.13,6.16Z"/>
  <circle class="st0" cx="912.88" cy="488" r="40"/>
  <path class="st0" d="M1150.61,307.27l-119.54,119.54s-.02.03-.03.04l-6.81,6.81s-.03.02-.04.03c-6.83,5.36-15.45,8.56-24.81,8.56-22.23,0-40.25-18.02-40.25-40.25,0-9.68,3.42-18.55,9.1-25.49l125.81-125.81c23.75-23.75,23.75-62.39,0-86.14l-66.72-66.72c-11.5-11.5-26.8-17.84-43.07-17.84s-31.57,6.34-43.07,17.84L186.01,853c-11.94,11.95-11.94,31.31,0,43.26l109.61,109.61c11.95,11.94,31.31,11.94,43.26,0l457.34-457.35,5.68-5.68c6.93-5.68,15.81-9.09,25.48-9.09,22.23,0,40.25,18.02,40.25,40.25,0,9.36-3.2,17.98-8.56,24.81-.01.01-.02.03-.03.04l-6.81,6.81s-.03.02-.04.03l-492.48,492.48c-11.72,11.72-27.09,17.58-42.46,17.58s-30.74-5.86-42.47-17.58l-181.07-181.07c-23.45-23.46-23.45-61.48,0-84.93L884.61,41.27C912.12,13.76,948.19,0,984.25,0s72.13,13.76,99.64,41.27l66.72,66.72c55.03,55.03,55.03,144.25,0,199.28Z"/>
  <path class="st0" d="M801.9,542.84l-5.68,5.68c1.7-2.08,3.6-3.98,5.68-5.68Z"/>
  <path class="st0" d="M859.04,598.85c-1.99,2.53-4.28,4.82-6.81,6.81l6.81-6.81Z"/>
  <path class="st0" d="M973.89,370.85l-5.66,5.66c1.69-2.07,3.59-3.97,5.66-5.66Z"/>
  <path class="st0" d="M1031.04,426.85c-1.99,2.53-4.28,4.82-6.81,6.81l6.81-6.81Z"/>
</svg>