<?xml version="1.0" encoding="UTF-8"?>
<svg id="Calque_1" xmlns="http://www.w3.org/2000/svg" version="1.1" viewBox="0 0 1200 1200">
  <!-- Generator: Adobe Illustrator 29.0.1, SVG Export Plug-In . SVG Version: 2.1.0 Build 192)  -->
  <defs>
    <style>
      .st0 {
        fill: #f7effb;
      }
    </style>
  </defs>
  <circle class="st0" cx="608.5" cy="263.11" r="40"/>
  <circle class="st0" cx="986" cy="194" r="40"/>
  <circle class="st0" cx="535" cy="703" r="40"/>
  <g>
    <path class="st0" d="M1200,600c0,331.37-268.63,600-600,600S0,931.37,0,600,268.63,0,600,0c112.62,0,218,31.03,308.04,85.02,1.83,1.08,3.66,2.19,5.48,3.32,10.13,7.3,16.73,19.21,16.73,32.66,0,22.23-18.02,40.25-40.25,40.25-5.61,0-10.94-1.15-15.79-3.22-3.21-2-6.44-3.96-9.69-5.87-19.91-11.79-40.65-22.24-62.14-31.33-64.05-27.09-132.15-40.83-202.38-40.83s-138.33,13.74-202.38,40.83c-61.91,26.19-117.53,63.69-165.32,111.47-47.78,47.79-85.28,103.41-111.47,165.32-27.09,64.05-40.83,132.15-40.83,202.38s13.74,138.33,40.83,202.38c26.19,61.91,63.69,117.53,111.47,165.32,47.79,47.78,103.41,85.28,165.32,111.47,64.05,27.09,132.15,40.83,202.38,40.83s138.33-13.74,202.38-40.83c61.91-26.19,117.53-63.69,165.32-111.47,47.78-47.79,85.28-103.41,111.47-165.32,27.09-64.05,40.83-132.15,40.83-202.38s-13.74-138.33-40.83-202.38c-12.93-30.58-28.63-59.63-46.97-86.95-.96-1.44-1.93-2.88-2.92-4.31-3.52-5.97-5.53-12.93-5.53-20.36,0-22.23,18.02-40.25,40.25-40.25,11.62,0,22.1,4.93,29.43,12.81.02,0,.02.01.02.02,2.37,3.42,4.71,6.87,7,10.34,62.91,94.89,99.55,208.71,99.55,331.08Z"/>
    <path class="st0" d="M1029.28,306.36c.99,1.43,1.96,2.87,2.92,4.31-1.07-1.37-2.04-2.81-2.92-4.31Z"/>
    <path class="st0" d="M1100.45,268.92c-2.29-3.47-4.63-6.92-7-10.34,2.85,3.04,5.22,6.53,7,10.34Z"/>
  </g>
  <g>
    <path class="st0" d="M889.77,856.96c-17.23,32.23-42.02,60.19-71.7,80.88-29.05,20.25-62.22,33.2-95.91,37.47-8.36,1.06-16.65,1.58-24.86,1.58-20.61,0-40.69-3.33-59.96-9.96-28.73-9.9-54.07-26.64-75.3-49.77-19-20.69-33.95-46.92-44.91-79.02-.83-2.41-1.64-4.86-2.41-7.34-.64-2.83-.97-5.78-.97-8.8,0-22.23,18.02-40.25,40.25-40.25,16.56,0,30.79,10.01,36.96,24.3.74,2.4,1.51,4.73,2.29,6.98,8.36,24.19,18.39,39.88,27.71,50.02,23.57,25.67,55.95,37.35,91.15,32.89,43.74-5.53,84.78-34.92,107.11-76.69,10.42-19.49,34.66-26.84,54.14-16.42,19.48,10.42,26.83,34.65,16.41,54.13Z"/>
    <path class="st0" d="M514.72,830.8c.77,2.48,1.58,4.93,2.41,7.34-1.04-2.34-1.85-4.79-2.41-7.34Z"/>
    <path class="st0" d="M593.25,813.03c-.78-2.25-1.55-4.58-2.29-6.98.97,2.23,1.74,4.56,2.29,6.98Z"/>
  </g>
  <g>
    <path class="st0" d="M602.5,397.33c-8.58,49.75-19.29,117.38-24.76,186.51-.11,1.52-.23,3.04-.35,4.56-2.64,19.68-19.49,34.85-39.89,34.85s-38.66-16.47-40.14-37.35c.29-4.02.6-8.03.93-12.03,1.88-22.96,4.28-45.66,6.96-67.56-9.68,6.85-19.57,12.93-29.71,18.28-39.9,21.06-82.95,30.38-131.6,28.49-22.08-.87-39.27-19.46-38.41-41.53.86-22.08,19.46-39.26,41.52-38.41,51.67,2.01,113.72-9.02,182.37-106.11,11-15.58,31-21.36,48.64-14.06,17.63,7.31,27.68,25.55,24.44,44.36Z"/>
    <path class="st0" d="M497.25,583c0-3.14.36-6.2,1.04-9.13-.33,4-.64,8.01-.93,12.03-.08-.96-.11-1.92-.11-2.9Z"/>
    <path class="st0" d="M577.74,583.84c-.03,1.54-.15,3.06-.35,4.56.12-1.52.24-3.04.35-4.56Z"/>
  </g>
</svg>