<?xml version="1.0" encoding="UTF-8"?>
<svg id="Calque_1" xmlns="http://www.w3.org/2000/svg" version="1.1" viewBox="0 0 1040 1200">
  <!-- Generator: Adobe Illustrator 29.0.1, SVG Export Plug-In . SVG Version: 2.1.0 Build 192)  -->
  <defs>
    <style>
      .st0 {
        fill: #f7effb;
      }
    </style>
  </defs>
  <g>
    <path class="st0" d="M639.99,1159.22c.43,22.42-18.35,40.78-40.78,40.78H41.93c-23.16,0-41.93-18.77-41.93-41.93v-155.07c0-22.09,17.91-40,40-40h0c22.09,0,40,17.91,40,40v94.2c0,12.59,10.21,22.8,22.8,22.8h497.2c21.83,0,39.58,17.49,39.99,39.22Z"/>
    <path class="st0" d="M40,804h0c-22.09,0-40-17.91-40-40V41.93C0,18.77,18.77,0,41.93,0h557.28c22.43,0,41.21,18.36,40.78,40.78-.41,21.73-18.16,39.22-39.99,39.22H102.8c-12.59,0-22.8,10.21-22.8,22.8v661.2c0,22.09-17.91,40-40,40Z"/>
  </g>
  <g>
    <g>
      <path class="st0" d="M200,640h800c22.09,0,40-17.91,40-40s-17.91-40-40-40H200c-22.09,0-40,17.91-40,40s17.91,40,40,40Z"/>
      <path class="st0" d="M483.42,923.42c10.24,0,20.47-3.91,28.28-11.72,15.62-15.62,15.62-40.95,0-56.57l-282.84-282.84c-15.62-15.62-40.95-15.62-56.57,0s-15.62,40.95,0,56.57l282.84,282.84c7.81,7.81,18.05,11.72,28.28,11.72Z"/>
      <g>
        <path class="st0" d="M438.89,361.1h0c15.62,15.62,40.95,15.62,56.57,0l16.25-16.25c15.62-15.62,15.62-40.94,0-56.57-15.63-15.62-40.95-15.62-56.57,0l-16.25,16.25c-15.62,15.62-15.62,40.95,0,56.57Z"/>
        <path class="st0" d="M160.59,599.85v.15c.14,10.05,4.04,20.05,11.7,27.71,7.81,7.81,18.05,11.71,28.29,11.71s20.47-3.9,28.28-11.71l27.71-27.71,68.54-68.54c15.62-15.62,15.62-40.95,0-56.57h0c-15.62-15.62-40.95-15.62-56.57,0l-96.24,96.25c-.16.16-.32.32-.47.48-.08.08-.17.17-.25.26-7.43,7.82-11.1,17.91-10.98,27.97Z"/>
      </g>
    </g>
    <circle class="st0" cx="382" cy="418" r="40"/>
  </g>
  <circle class="st0" cx="40" cy="883" r="40"/>
</svg>