<?xml version="1.0" encoding="UTF-8"?>
<svg id="Calque_1" xmlns="http://www.w3.org/2000/svg" version="1.1" viewBox="0 0 1181.98 1008.52">
  <!-- Generator: Adobe Illustrator 29.0.1, SVG Export Plug-In . SVG Version: 2.1.0 Build 192)  -->
  <defs>
    <style>
      .st0 {
        display: none;
      }

      .st0, .st1 {
        fill: #f7effb;
      }
    </style>
  </defs>
  <path class="st0" d="M820.63,35.69L40.01,486.38l278.36,482.13,780.62-450.69,42.98-346.24L820.63,35.69ZM992.36,306.12c-22.06,0-40-17.94-40-40s17.94-40,40-40,40,17.94,40,40-17.94,40-40,40Z"/>
  <path class="st1" d="M1158.44,135.13c-.26-.12-.52-.24-.78-.35L853.12,6c-19.96-8.2-42.27-7.94-61.88.47l-132.7,76.61c-19.13,11.04-25.68,35.5-14.64,54.63h0c11.04,19.13,35.51,25.69,54.64,14.64l112.68-65.05h.01c7.66-4.43,16.96-5,25.12-1.56l4.84,2.05.36.15,242.4,102.52c.1.04.19.08.29.13,8.47,3.62,13.54,12.41,12.4,21.57l-32.37,260.72c-.31,2.46-.84,4.86-1.56,7.19-2.38,7.59-6.91,14.33-13.05,19.39-1.73,1.43-3.59,2.72-5.57,3.86l-693.75,400.54c-5.76,3.32-12.48,3.46-18.12.95-.04-.02-.07-.04-.11-.05-3.69-1.66-6.91-4.45-9.09-8.22l-218.36-378.21c-5.52-9.57-2.25-21.8,7.32-27.32l378.49-218.52c19.13-11.04,25.68-35.51,14.64-54.64h0c-11.04-19.13-35.51-25.69-54.64-14.64L20.01,451.74c-19.13,11.04-25.69,35.51-14.64,54.64l278.36,482.13c4.34,7.52,10.75,13.09,18.1,16.42,11.35,5.15,24.93,4.93,36.54-1.78l763.37-440.74c2.76-1.59,5.4-3.33,7.91-5.21,14.6-10.92,25.04-26.5,29.56-44.13.86-3.29,1.5-6.66,1.92-10.08l40.55-326.6c2.16-17.4-7.3-34.13-23.24-41.26Z"/>
  <path class="st1" d="M992.36,186.12c-44.11,0-80,35.89-80,80s35.89,80,80,80,80-35.89,80-80-35.89-80-80-80ZM992.36,306.12c-22.06,0-40-17.94-40-40s17.94-40,40-40,40,17.94,40,40-17.94,40-40,40Z"/>
  <g>
    <path class="st1" d="M514.72,629.47h0c9.57,5.52,12.84,17.75,7.32,27.32l-48.41,83.86c-3.71,6.41-10.43,10-17.34,10-3.39,0-6.83-.86-9.98-2.68-9.57-5.53-12.85-17.76-7.32-27.32l48.41-83.86c5.52-9.57,17.75-12.84,27.32-7.32Z"/>
    <path class="st1" d="M731.73,293.59l-139.46,241.56c-5.52,9.57-17.75,12.84-27.32,7.32h0c-9.57-5.52-12.84-17.75-7.32-27.32l139.46-241.56c5.52-9.56,17.76-12.84,27.32-7.32,9.57,5.53,12.85,17.76,7.32,27.32Z"/>
  </g>
  <path class="st1" d="M488.36,495.12c-38.6,0-70-31.4-70-70s31.4-70,70-70,70,31.4,70,70-31.4,70-70,70ZM488.36,395.12c-16.54,0-30,13.46-30,30s13.46,30,30,30,30-13.46,30-30-13.46-30-30-30Z"/>
  <path class="st1" d="M696.36,635.12c-38.6,0-70-31.4-70-70s31.4-70,70-70,70,31.4,70,70-31.4,70-70,70ZM696.36,535.12c-16.54,0-30,13.46-30,30s13.46,30,30,30,30-13.46,30-30-13.46-30-30-30Z"/>
  <circle class="st1" cx="574.36" cy="177.82" r="40"/>
  <circle class="st1" cx="539.76" cy="586.12" r="20"/>
</svg>