<?xml version="1.0" encoding="UTF-8"?>
<svg id="Calque_1" xmlns="http://www.w3.org/2000/svg" version="1.1" viewBox="0 0 1182 1008.5">
  <!-- Generator: Adobe Illustrator 29.0.1, SVG Export Plug-In . SVG Version: 2.1.0 Build 192)  -->
  <defs>
    <style>
      .st0 {
        fill: #ff3700;
      }

      .st1 {
        fill: #f7a100;
      }
    </style>
  </defs>
  <path class="st1" d="M820.6,35.7L40,486.4l278.4,482.1,780.6-450.7,43-346.2L820.6,35.7ZM992.4,306.1c-22.1,0-40-17.9-40-40s17.9-40,40-40,40,17.9,40,40-17.9,40-40,40Z"/>
  <path class="st0" d="M1158.4,135.1c-.3-.1-.5-.2-.8-.4L853.1,6c-20-8.2-42.3-7.9-61.9.5l-132.7,76.6c-19.1,11-25.7,35.5-14.6,54.6h0c11,19.1,35.5,25.7,54.6,14.6l112.7-65.1h0c7.7-4.4,17-5,25.1-1.6l4.8,2.1.4.2,242.4,102.5c0,0,.2,0,.3.1,8.5,3.6,13.5,12.4,12.4,21.6l-32.4,260.7c-.3,2.5-.8,4.9-1.6,7.2-2.4,7.6-6.9,14.3-13.1,19.4-1.7,1.4-3.6,2.7-5.6,3.9l-693.8,400.5c-5.8,3.3-12.5,3.5-18.1,1,0,0,0,0-.1,0-3.7-1.7-6.9-4.5-9.1-8.2l-218.4-378.2c-5.5-9.6-2.2-21.8,7.3-27.3l378.5-218.5c19.1-11,25.7-35.5,14.6-54.6h0c-11-19.1-35.5-25.7-54.6-14.6L20,451.7c-19.1,11-25.7,35.5-14.6,54.6l278.4,482.1c4.3,7.5,10.8,13.1,18.1,16.4,11.4,5.2,24.9,4.9,36.5-1.8l763.4-440.7c2.8-1.6,5.4-3.3,7.9-5.2,14.6-10.9,25-26.5,29.6-44.1.9-3.3,1.5-6.7,1.9-10.1l40.6-326.6c2.2-17.4-7.3-34.1-23.2-41.3h0Z"/>
  <path class="st0" d="M992.4,186.1c-44.1,0-80,35.9-80,80s35.9,80,80,80,80-35.9,80-80-35.9-80-80-80ZM992.4,306.1c-22.1,0-40-17.9-40-40s17.9-40,40-40,40,17.9,40,40-17.9,40-40,40Z"/>
  <g>
    <path class="st0" d="M514.7,629.5h0c9.6,5.5,12.8,17.8,7.3,27.3l-48.4,83.9c-3.7,6.4-10.4,10-17.3,10s-6.8-.9-10-2.7c-9.6-5.5-12.9-17.8-7.3-27.3l48.4-83.9c5.5-9.6,17.8-12.8,27.3-7.3Z"/>
    <path class="st0" d="M731.7,293.6l-139.5,241.6c-5.5,9.6-17.8,12.8-27.3,7.3h0c-9.6-5.5-12.8-17.8-7.3-27.3l139.5-241.6c5.5-9.6,17.8-12.8,27.3-7.3,9.6,5.5,12.8,17.8,7.3,27.3h0Z"/>
  </g>
  <path class="st0" d="M488.4,495.1c-38.6,0-70-31.4-70-70s31.4-70,70-70,70,31.4,70,70-31.4,70-70,70ZM488.4,395.1c-16.5,0-30,13.5-30,30s13.5,30,30,30,30-13.5,30-30-13.5-30-30-30Z"/>
  <path class="st0" d="M696.4,635.1c-38.6,0-70-31.4-70-70s31.4-70,70-70,70,31.4,70,70-31.4,70-70,70ZM696.4,535.1c-16.5,0-30,13.5-30,30s13.5,30,30,30,30-13.5,30-30-13.5-30-30-30Z"/>
  <circle class="st0" cx="574.4" cy="177.8" r="40"/>
  <circle class="st0" cx="539.8" cy="586.1" r="20"/>
</svg>