<?xml version="1.0" encoding="UTF-8"?>
<svg id="Calque_1" xmlns="http://www.w3.org/2000/svg" version="1.1" viewBox="0 0 1200 1200">
  <!-- Generator: Adobe Illustrator 29.0.1, SVG Export Plug-In . SVG Version: 2.1.0 Build 192)  -->
  <defs>
    <style>
      .st0 {
        fill: #f7effb;
      }
    </style>
  </defs>
  <path class="st0" d="M760,755c-11.04,0-21.04,4.48-28.28,11.72-7.24,7.24-11.72,17.24-11.72,28.28v214.77c0,16.7-13.53,30.23-30.23,30.23h-9.23c-22.09,0-40,17.91-40,40,0,11.04,4.48,21.04,11.72,28.28s17.24,11.72,28.28,11.72h58.56c33.63,0,60.9-27.27,60.9-60.9v-264.1c0-22.09-17.91-40-40-40ZM739.1,375H60.9c-33.63,0-60.9,27.27-60.9,60.9v623.2c0,33.63,27.27,60.9,60.9,60.9h379.64c22.09,0,40-17.91,40-40,0-11.04-4.48-21.04-11.72-28.28s-17.24-11.72-28.28-11.72H110.23c-16.7,0-30.23-13.53-30.23-30.23V485.23c0-16.7,13.53-30.23,30.23-30.23h579.54c16.7,0,30.23,13.53,30.23,30.23v109.77h40c22.09,0,40-17.91,40-40v-119.1c0-33.63-27.27-60.9-60.9-60.9Z"/>
  <rect class="st0" x="251" y="180" width="886" height="40"/>
  <rect class="st0" x="29" y="555" width="730" height="40"/>
  <g>
    <rect class="st0" x="280" y="485" width="300" height="40" rx="20" ry="20"/>
    <circle class="st0" cx="220" cy="505" r="20"/>
    <circle class="st0" cx="140" cy="505" r="20"/>
  </g>
  <g>
    <rect class="st0" x="480" y="110" width="300" height="40" rx="20" ry="20"/>
    <circle class="st0" cx="420" cy="130" r="20"/>
    <circle class="st0" cx="340" cy="130" r="20"/>
  </g>
  <circle class="st0" cx="561" cy="1005" r="40"/>
  <circle class="st0" cx="1160" cy="349" r="40"/>
  <path class="st0" d="M1200,60.9v168.1c0,22.09-17.91,40-40,40s-40-17.91-40-40v-118.77c0-16.7-13.53-30.23-30.23-30.23H310.23c-16.7,0-30.23,13.53-30.23,30.23v184.77c0,11.04-4.48,21.04-11.72,28.28-7.24,7.24-17.24,11.72-28.28,11.72-22.09,0-40-17.91-40-40V60.9c0-33.63,27.27-60.9,60.9-60.9h878.2c33.63,0,60.9,27.27,60.9,60.9Z"/>
  <path class="st0" d="M1200,469v470.1c0,33.63-27.27,60.9-60.9,60.9h-259.1c-11.04,0-21.04-4.48-28.28-11.72-7.24-7.24-11.72-17.24-11.72-28.28,0-22.09,17.91-40,40-40h209.77c16.7,0,30.23-13.53,30.23-30.23v-420.77c0-22.09,17.91-40,40-40s40,17.91,40,40Z"/>
  <path class="st0" d="M600.54,1120.88v39.29c0,22.09-17.91,40-40,40s-40-17.91-40-40v-40.02c2.39-19.94,19.37-35.4,39.96-35.4s37.98,15.84,40.04,36.13Z"/>
  <path class="st0" d="M1080,675c0,22.09-17.91,40-40,40h-419.39c-11.07,0-20.07,9-20.07,20.07v154.05c-2.06,20.29-19.2,36.13-40.04,36.13s-37.57-15.46-39.96-35.4v-154.78c0-55.18,44.89-100.07,100.07-100.07h419.39c22.09,0,40,17.91,40,40Z"/>
  <path class="st0" d="M892.04,873.82c-9.75,0-19.52-3.54-27.23-10.71-16.18-15.04-17.1-40.35-2.06-56.53l147.85-159.02c15.04-16.18,40.35-17.1,56.53-2.06,16.18,15.04,17.1,40.35,2.06,56.53l-147.85,159.02c-7.88,8.47-18.58,12.76-29.3,12.76Z"/>
  <path class="st0" d="M1039.91,714.82c-10.73,0-21.42-4.29-29.3-12.76l-147.85-159.02c-15.04-16.18-14.12-41.49,2.06-56.53,16.18-15.04,41.49-14.12,56.53,2.06l147.85,159.02c15.04,16.18,14.12,41.49-2.06,56.53-7.7,7.16-17.48,10.71-27.23,10.71Z"/>
</svg>