<?xml version="1.0" encoding="UTF-8"?>
<svg id="Calque_1" xmlns="http://www.w3.org/2000/svg" version="1.1" viewBox="0 0 1032.22 1199.88">
  <!-- Generator: Adobe Illustrator 29.0.1, SVG Export Plug-In . SVG Version: 2.1.0 Build 192)  -->
  <defs>
    <style>
      .st0 {
        fill: #f7effb;
      }
    </style>
  </defs>
  <g>
    <path class="st0" d="M229.28,1031.72c-7.23-7.24-17.23-11.72-28.28-11.72h-88.77c-17.8,0-32.23-14.43-32.23-32.23v-54.77c0-22.09-17.91-40-40-40h0c-22.09,0-40,17.91-40,40v54.77c0,61.98,50.25,112.23,112.23,112.23h88.06c22.15,0,40.85-18.12,40.71-40.27-.07-10.93-4.54-20.83-11.72-28.01ZM687.77,0H112.23C50.25,0,0,50.25,0,112.23v579.77c0,22.09,17.91,40,40,40h0c22.09,0,40-17.91,40-40V112.23c0-17.8,14.43-32.23,32.23-32.23h575.54c17.8,0,32.23,14.43,32.23,32.23v280.06c0,22.16,18.13,40.87,40.3,40.71,10.93-.08,20.82-4.54,27.98-11.72,7.24-7.24,11.72-17.24,11.72-28.28V112.23c0-61.98-50.25-112.23-112.23-112.23Z"/>
    <path class="st0" d="M1020.43,562.56l-126.91-126.91c-15.73-15.73-41.21-15.73-56.94,0l-485.42,485.41c-5.21,5.21-8.69,11.49-10.45,18.13l-82.37,223.58c-8.12,22.04,13.31,43.47,35.35,35.35l227.17-83.69c7.68-2.83,13.81-7.64,18.18-13.55l481.39-481.39c15.72-15.72,15.72-41.21,0-56.93ZM427.02,1063.75l-44.29,16.31c-3.95,1.46-7.79-2.38-6.33-6.33l16.31-44.28c1.25-3.38,5.58-4.33,8.12-1.78l27.97,27.96c2.54,2.55,1.6,6.87-1.78,8.12ZM821.42,705.36l-304.65,304.66c-5.65,5.64-14.8,5.64-20.45,0l-50.26-50.27c-5.65-5.64-5.65-14.8,0-20.44l304.65-304.66c5.74-5.74,15.05-5.74,20.79,0l49.92,49.93c5.74,5.74,5.74,15.04,0,20.78ZM925.73,601.05l-26.96,26.96c-5.74,5.74-15.04,5.74-20.78,0l-49.93-49.93c-5.74-5.73-5.74-15.04,0-20.78l26.96-26.96c5.54-5.53,14.52-5.53,20.05,0l50.66,50.66c5.54,5.54,5.54,14.52,0,20.05Z"/>
  </g>
  <path class="st0" d="M628.11,456h-.09l-450-1c-22.09-.05-39.96-18-39.91-40.09.05-22.06,17.95-39.91,40-39.91h.09l450,1c22.09.05,39.96,18,39.91,40.09-.05,22.06-17.95,39.91-40,39.91Z"/>
  <path class="st0" d="M528.11,671h-.12l-350-1c-22.09-.06-39.95-18.02-39.89-40.11.06-22.05,17.96-39.89,40-39.89h.12l350,1c22.09.06,39.95,18.02,39.89,40.11-.06,22.05-17.96,39.89-40,39.89Z"/>
  <g>
    <g>
      <path class="st0" d="M178.2,160l184.09.41c22.06.05,39.91,17.94,39.91,40h0c0,22.13-17.96,40.05-40.09,40l-184.09-.41c-22.09-.05-39.96-18-39.91-40.09.05-22.06,17.95-39.91,40-39.91h.09Z"/>
      <path class="st0" d="M668.11,201.09c-.05,22.06-17.95,39.91-40,39.91h-.09l-25.91-.06c-22.06-.05-39.91-17.94-39.91-40h0c0-22.13,17.96-40.05,40.09-40l25.91.06c22.09.05,39.96,18,39.91,40.09Z"/>
    </g>
    <circle class="st0" cx="482.11" cy="201" r="40"/>
  </g>
  <circle class="st0" cx="40.11" cy="812" r="40"/>
</svg>