<?xml version="1.0" encoding="UTF-8"?>
<svg id="Calque_1" xmlns="http://www.w3.org/2000/svg" version="1.1" viewBox="0 0 961.57 1159.57">
  <!-- Generator: Adobe Illustrator 29.0.1, SVG Export Plug-In . SVG Version: 2.1.0 Build 192)  -->
  <defs>
    <style>
      .st0 {
        fill: #f7effb;
      }
    </style>
  </defs>
  <path class="st0" d="M720,873v68.06c0,11.01-8.93,19.94-19.94,19.94H99.94c-11.01,0-19.94-8.93-19.94-19.94v-83.06c0-22.09-17.91-40-40-40h0c-22.09,0-40,17.91-40,40v102.21c0,44.62,36.17,80.79,80.79,80.79h638.42c44.62,0,80.79-36.17,80.79-80.79v-87.21c0-22.09-17.91-40-40-40h0c-22.09,0-40,17.91-40,40ZM719.21,141H80.79C36.17,141,0,177.17,0,221.79v395.21c0,22.09,17.91,40,40,40h0c22.09,0,40-17.91,40-40V240.94c0-11.01,8.93-19.94,19.94-19.94h600.12c11.01,0,19.94,8.93,19.94,19.94v381.06c0,22.09,17.91,40,40,40h0c22.09,0,40-17.91,40-40V221.79c0-44.62-36.17-80.79-80.79-80.79Z"/>
  <path class="st0" d="M209,561c-22.09,0-40-17.91-40-40,0-213.73,0-331.46,26.07-406.93,15.3-44.31,40.47-74.52,76.93-92.36C303.1,6.49,341.38,0,400,0c66.32,0,129.33,3.49,171.33,45.58,16.88,16.92,29.35,38.97,38.12,67.41,7.56,24.51,12.64,54.16,15.99,93.29,6.12,71.53,5.89,171.01,5.57,308.7v6.11c-.06,22.06-17.96,39.91-40.01,39.91h-.09c-22.09-.05-39.96-18-39.91-40.09v-6.11c.32-135.65.55-233.66-5.27-301.7-5.1-59.63-14.96-94.9-31.03-111.01-16.06-16.1-47.15-22.08-114.7-22.08-93.45,0-114.66,17.74-129.32,60.18-21.68,62.78-21.68,182.49-21.68,380.82,0,22.09-17.91,40-40,40Z"/>
  <g>
    <path class="st0" d="M600,1119.54h0c0,22.05-17.84,39.95-39.89,40-34.61.09-72.36,0-113.52-.1h-6.11c-22.06-.06-39.91-17.96-39.91-40.01v-.09c.05-22.09,18-39.96,40.09-39.91h6.12c41.09.1,78.72.19,113.12.11,22.13-.05,40.1,17.87,40.1,40Z"/>
    <path class="st0" d="M961.57,928.43c0,66.32-3.48,129.33-45.58,171.33-16.92,16.88-38.96,29.35-67.41,38.12-12.14,3.75-25.54,6.88-40.73,9.5-24.47,4.22-46.85-14.61-46.85-39.44h0c0-19.45,13.98-36.1,33.14-39.42,32.73-5.67,53.89-13.96,65.35-25.39,16.1-16.06,22.08-47.15,22.08-114.7,0-93.45-17.74-114.66-60.18-129.32-62.7-21.65-182.17-21.68-380.02-21.68-22.43,0-41.22-18.35-40.79-40.78s18.16-39.22,39.99-39.22c213.73,0,331.46,0,406.93,26.07,44.31,15.3,74.52,40.46,92.36,76.93,15.22,31.1,21.71,69.38,21.71,128Z"/>
  </g>
  <path class="st0" d="M440.25,777.25c-10.27,0-20.53-3.93-28.35-11.78-15.59-15.66-15.53-40.98.13-56.57l109.75-109.25c15.66-15.59,40.98-15.53,56.57.13,15.58,15.66,15.53,40.98-.13,56.57l-109.75,109.25c-7.8,7.77-18.01,11.65-28.22,11.65Z"/>
  <path class="st0" d="M549.75,887.5c-10.27,0-20.53-3.93-28.35-11.78l-109.25-109.75c-15.59-15.66-15.53-40.98.13-56.57,15.66-15.58,40.98-15.53,56.57.13l109.25,109.75c15.58,15.66,15.53,40.98-.13,56.57-7.8,7.77-18.01,11.65-28.22,11.65Z"/>
  <circle class="st0" cx="40" cy="738" r="40"/>
  <circle class="st0" cx="681" cy="1118" r="40"/>
</svg>