<?xml version="1.0" encoding="UTF-8"?>
<svg id="Calque_1" xmlns="http://www.w3.org/2000/svg" version="1.1" viewBox="0 0 639.84 1199.84">
  <!-- Generator: Adobe Illustrator 29.0.1, SVG Export Plug-In . SVG Version: 2.1.0 Build 192)  -->
  <defs>
    <style>
      .st0 {
        fill: #f7effb;
      }
    </style>
  </defs>
  <path class="st0" d="M40,639.84c-10.24,0-20.47-3.91-28.28-11.72-15.62-15.62-15.62-40.95,0-56.57L571.56,11.72c15.62-15.62,40.95-15.62,56.57,0,15.62,15.62,15.62,40.95,0,56.57L68.28,628.13c-7.81,7.81-18.05,11.72-28.28,11.72Z"/>
  <path class="st0" d="M599.84,1199.84c-10.24,0-20.47-3.91-28.28-11.72L11.72,628.28c-15.62-15.62-15.62-40.95,0-56.57s40.95-15.62,56.57,0l559.84,559.84c15.62,15.62,15.62,40.95,0,56.57-7.81,7.81-18.05,11.72-28.28,11.72Z"/>
</svg>