<?xml version="1.0" encoding="UTF-8"?>
<svg id="Calque_1" xmlns="http://www.w3.org/2000/svg" version="1.1" viewBox="0 0 1200 1200">
  <!-- Generator: Adobe Illustrator 29.0.1, SVG Export Plug-In . SVG Version: 2.1.0 Build 192)  -->
  <defs>
    <style>
      .st0 {
        fill: #f7eefc;
      }
    </style>
  </defs>
  <path class="st0" d="M40,1200c-10.2,0-20.5-3.9-28.3-11.7-15.6-15.6-15.6-40.9,0-56.6L1131.7,11.7c15.6-15.6,40.9-15.6,56.6,0,15.6,15.6,15.6,40.9,0,56.6L68.3,1188.3c-7.8,7.8-18,11.7-28.3,11.7Z"/>
  <path class="st0" d="M1160,1200c10.2,0,20.5-3.9,28.3-11.7,15.6-15.6,15.6-40.9,0-56.6L68.3,11.7C52.7-3.9,27.3-3.9,11.7,11.7c-15.6,15.6-15.6,40.9,0,56.6l1120,1120c7.8,7.8,18,11.7,28.3,11.7Z"/>
</svg>